<?xml version="1.0" encoding="UTF-8"?>
<svg fill="#FFFFFF" width="100pt" height="100pt" version="1.1" viewBox="0 0 100 100" xmlns="http://www.w3.org/2000/svg">
 <g>
  <path d="m50 64.137c-0.51953 0-1.0469-0.15234-1.5-0.45312l-46.273-30.781c-1.2461-0.82812-1.582-2.5078-0.75391-3.7539 0.82422-1.25 2.5078-1.5859 3.7539-0.75391l44.773 29.781 44.773-29.777c1.2578-0.83984 2.9297-0.48828 3.7539 0.75391 0.82812 1.2461 0.49219 2.9258-0.75391 3.7539l-46.273 30.773c-0.45312 0.30078-0.98047 0.45703-1.5 0.45703z"/>
  <path d="m96.273 72.059h-92.547c-1.4961 0-2.707-1.2109-2.707-2.707 0-1.4961 1.2109-2.707 2.707-2.707h92.551c1.4961 0 2.707 1.2109 2.707 2.707 0 1.4961-1.2109 2.707-2.7109 2.707z"/>
 </g>
</svg>
