<?xml version="1.0" encoding="UTF-8"?>
<svg fill="#FFFFFF" width="100pt" height="100pt" version="1.1" viewBox="0 0 100 100" xmlns="http://www.w3.org/2000/svg">
 <g>
  <path d="m95.551 40.328c-1.8711-0.26953-3.8086-0.55078-5.7383-0.80078l-0.003906 0.003906c-0.22656-0.03125-0.41797-0.19141-0.48828-0.41016-0.89844-3.2305-2.1875-6.3398-3.832-9.2617-0.11328-0.19531-0.089843-0.44922 0.0625-0.62109 1.1914-1.5391 2.3594-3.1094 3.5-4.6289 1.5234-2.0898 1.3086-4.9766-0.51172-6.8203l-6.3281-6.3281c-1.8477-1.8164-4.7461-2.0117-6.8203-0.46094-1.5195 1.1289-3.0898 2.3008-4.6289 3.5-0.18359 0.13672-0.42578 0.16016-0.63281 0.058594-2.9141-1.6602-6.0234-2.9453-9.2578-3.8281-0.22266-0.070313-0.38281-0.26172-0.41016-0.49219-0.25-1.9297-0.53125-3.8711-0.80078-5.7383-0.37891-2.5781-2.5859-4.4883-5.1914-4.5h-8.9375c-2.5898 0.011719-4.7891 1.8945-5.2031 4.4492-0.26953 1.8711-0.55078 3.8086-0.80078 5.7383l0.003906 0.003906c-0.03125 0.22656-0.19141 0.41797-0.41016 0.48828-3.2305 0.89844-6.3398 2.1875-9.2617 3.832-0.19922 0.12109-0.45703 0.09375-0.62891-0.0625-1.5391-1.1914-3.1094-2.3594-4.6289-3.5-2.0938-1.5234-4.9805-1.3086-6.8203 0.51172l-6.3281 6.3281h-0.003906c-1.8125 1.8516-2.0039 4.7461-0.44922 6.8203 1.1289 1.5195 2.3008 3.0898 3.5 4.6289 0.13281 0.18359 0.15625 0.41797 0.058594 0.62109-1.6602 2.9141-2.9453 6.0234-3.8281 9.2617-0.070313 0.21875-0.26172 0.37891-0.49219 0.41016-1.9297 0.25-3.8516 0.53125-5.7383 0.80078v-0.003906c-2.5781 0.38281-4.4922 2.5938-4.5 5.2031v8.9492c0.011719 2.5898 1.8945 4.7891 4.4492 5.1992 1.8711 0.26953 3.8086 0.55078 5.7383 0.80078h0.003906c0.22656 0.027343 0.41797 0.1875 0.48828 0.41016 0.89844 3.2305 2.1875 6.3398 3.832 9.2578 0.11328 0.19922 0.089843 0.44922-0.0625 0.62109-1.1914 1.5391-2.3594 3.1094-3.5 4.6289-1.5234 2.0938-1.3086 4.9805 0.51172 6.8203l6.3281 6.3281v0.003906c1.8359 1.8281 4.7344 2.0469 6.8203 0.50781 1.5195-1.1289 3.0898-2.3008 4.6289-3.5 0.18359-0.13281 0.42578-0.15625 0.63281-0.058594 2.9141 1.6602 6.0234 2.9492 9.2578 3.8281 0.22266 0.070313 0.38281 0.26172 0.41016 0.49219 0.25 1.9297 0.53125 3.8711 0.80078 5.7383 0.40234 2.5625 2.6094 4.4492 5.1992 4.4531h8.9492c2.5898-0.011719 4.7891-1.8945 5.2031-4.4531 0.26953-1.8711 0.55078-3.8086 0.80078-5.7383h-0.003907c0.03125-0.23047 0.19141-0.42187 0.41016-0.49219 3.2305-0.89844 6.3398-2.1836 9.2617-3.8281 0.19922-0.12109 0.45703-0.097656 0.62891 0.058594 1.5391 1.1914 3.1094 2.3594 4.6289 3.5h0.003906c2.0898 1.5273 4.9766 1.3086 6.8164-0.50781l6.332-6.332c1.8125-1.8555 1.9922-4.7578 0.42969-6.8281-1.1289-1.5195-2.3008-3.0898-3.5-4.6289-0.13281-0.18359-0.15625-0.41797-0.058594-0.62109 1.6602-2.9141 2.9453-6.0234 3.8281-9.2617 0.070313-0.21875 0.26172-0.37891 0.49219-0.41016 1.9297-0.25 3.8516-0.53125 5.7383-0.80078v0.003906c2.5586-0.40625 4.4453-2.6094 4.4492-5.2031v-8.9375c0.011719-2.5781-1.8555-4.7852-4.3984-5.2031zm-0.22266 14.121c-0.003906 0.28516-0.21094 0.52344-0.48828 0.57031-1.8594 0.26953-3.75 0.55078-5.6406 0.78125-2.0938 0.25391-3.8242 1.7539-4.3789 3.7891-0.78906 2.8594-1.9336 5.6055-3.3984 8.1797-1.0391 1.8359-0.87891 4.1133 0.40625 5.7812 1.1719 1.5195 2.3203 3 3.4414 4.5508 0.15625 0.22656 0.13281 0.53516-0.058593 0.73828l-6.332 6.332c-0.19531 0.19922-0.51172 0.22266-0.73828 0.058594-1.5-1.1094-3-2.2695-4.5508-3.4414-1.668-1.2852-3.9453-1.4453-5.7812-0.41016-2.5781 1.4609-5.3242 2.6016-8.1797 3.4023-2.0273 0.5625-3.5195 2.2891-3.7891 4.3789-0.25 1.8906-0.51172 3.8086-0.78125 5.6406-0.046875 0.27734-0.28516 0.48438-0.57031 0.48828h-8.9375c-0.27734-0.007812-0.51172-0.21484-0.55078-0.48828-0.26953-1.8594-0.55078-3.75-0.78125-5.6406-0.25391-2.0938-1.7539-3.8281-3.7891-4.3789-2.8555-0.78906-5.6055-1.9336-8.1797-3.4023-0.78906-0.44141-1.6758-0.67578-2.5781-0.67969-1.1602 0-2.2852 0.38281-3.2031 1.0898-1.5195 1.1719-3 2.3203-4.5508 3.4414h0.003906c-0.23047 0.15625-0.53906 0.13281-0.74219-0.058594l-6.3281-6.3281v-0.003906c-0.20312-0.19922-0.22656-0.51172-0.0625-0.73828 1.1094-1.5 2.2695-3 3.4414-4.5508 1.2852-1.668 1.4492-3.9453 0.41016-5.7812-1.4609-2.5781-2.6016-5.3242-3.4023-8.1797-0.5625-2.0273-2.2891-3.5234-4.3789-3.7891-1.9102-0.25-3.8086-0.51172-5.6602-0.80078-0.27734-0.046875-0.48438-0.28516-0.48828-0.57031v-8.918c0.003906-0.28516 0.21094-0.52344 0.48828-0.57031 1.8594-0.26953 3.75-0.55078 5.6406-0.78125 2.0938-0.25391 3.8281-1.7539 4.3789-3.7891 0.78906-2.8594 1.9336-5.6055 3.4023-8.1797 1.0352-1.8359 0.875-4.1133-0.41016-5.7812-1.1719-1.5195-2.3203-3-3.4414-4.5508-0.15625-0.23047-0.13281-0.53906 0.058594-0.73828l6.332-6.332c0.19922-0.19922 0.51172-0.22266 0.73828-0.058593 1.5 1.1094 3 2.2695 4.5508 3.4414 1.668 1.2852 3.9453 1.4453 5.7812 0.40625 2.5781-1.457 5.3242-2.6016 8.1797-3.3984 2.0273-0.56641 3.5234-2.2891 3.7891-4.3789 0.25-1.8906 0.51172-3.8008 0.80078-5.6406 0.046875-0.27734 0.28516-0.48438 0.57031-0.48828h8.9492c0.28516-0.003906 0.53125 0.20312 0.57031 0.48828 0.26953 1.8594 0.55078 3.75 0.78125 5.6406 0.25391 2.0938 1.7539 3.8242 3.7891 4.3789 2.8555 0.78906 5.6055 1.9336 8.1797 3.3984 1.8359 1.0391 4.1094 0.87891 5.7812-0.40625 1.5195-1.1719 3-2.3203 4.5508-3.4414 0.22656-0.15625 0.53516-0.13281 0.73828 0.058593l6.3281 6.3281v0.003906c0.20312 0.19531 0.22656 0.51172 0.0625 0.73828-1.1094 1.5-2.2695 3-3.4414 4.5508-1.2852 1.668-1.4492 3.9453-0.41016 5.7812 1.4609 2.5781 2.6016 5.3242 3.4023 8.1797 0.5625 2.0273 2.2891 3.5195 4.3789 3.7891 1.8906 0.25 3.8086 0.51172 5.6406 0.78125 0.27734 0.046875 0.48438 0.28516 0.48828 0.57031v8.9492z"/>
  <path d="m50 31.41c-4.9258 0-9.6445 1.957-13.129 5.4375-3.4805 3.4805-5.4375 8.2031-5.4414 13.125 0 4.9258 1.9531 9.6484 5.4336 13.133 3.4805 3.4805 8.1992 5.4414 13.125 5.4453 4.9219 0.003907 9.6445-1.9492 13.133-5.4297 3.4844-3.4766 5.4453-8.1953 5.4492-13.121 0-4.9258-1.957-9.6523-5.4375-13.137-3.4844-3.4883-8.207-5.4492-13.133-5.4531zm0 33.141c-3.8672 0-7.5742-1.5352-10.305-4.2695-2.7344-2.7344-4.2656-6.4414-4.2656-10.309 0.003906-3.8633 1.5391-7.5703 4.2734-10.301 2.7383-2.7344 6.4453-4.2656 10.309-4.2617 3.8672 0.003906 7.5742 1.543 10.301 4.2773 2.7305 2.7383 4.2617 6.4453 4.2578 10.312-0.011718 3.8594-1.5547 7.5547-4.2852 10.281-2.7305 2.7266-6.4258 4.2617-10.285 4.2695z"/>
 </g>
</svg>
