<?xml version="1.0" encoding="UTF-8"?>
<svg fill="#FFFFFF" width="100pt" height="100pt" version="1.1" viewBox="0 0 100 100" xmlns="http://www.w3.org/2000/svg">
 <path d="m50 0c-13.262 0-25.98 5.2695-35.355 14.645s-14.645 22.094-14.645 35.355 5.2695 25.98 14.645 35.355 22.094 14.645 35.355 14.645 25.98-5.2695 35.355-14.645 14.645-22.094 14.645-35.355-5.2695-25.98-14.645-35.355-22.094-14.645-35.355-14.645zm3.7812 69.879c0.019531 3.2109-1.7812 5.1211-4.9297 5.1211-3.1484 0-5.25-1.8398-5.2617-4.5312 0-3.7305 1.6719-5.5898 5-5.6914 2.7109-0.078125 5.5312 1.582 5.1914 5.1016zm7-23.078c-1.4219 1.1016-2.9102 2.1016-4.3398 3.1797-2.1094 1.3828-3.3242 3.7812-3.1797 6.3008 0.070312 1.8359-1.1172 3.4844-2.8828 4-1.8789 0.72266-4.0078 0.085938-5.1797-1.5508-0.37109-0.62891-0.57422-1.3398-0.58984-2.0703-0.14453-4.5898 1.9844-8.9531 5.6914-11.66 1.6055-1.2227 3.1172-2.5586 4.5273-4 0.67578-0.79297 1.082-1.7734 1.1719-2.8086 0.23047-2.8281-1.5898-4.6484-4.5195-4.8398-3.5391-0.23047-6.5195 0.69141-8.5898 3.8203-0.89062 1.5078-2.625 2.3086-4.3516 2-3-0.5-4.2891-2.9414-3.0586-5.75 1.2891-2.7422 3.5-4.9375 6.25-6.2031 2.8242-1.3867 5.9141-2.1445 9.0586-2.2188 1.7812 0.1875 3.5469 0.47656 5.2891 0.87109 5.3281 1.5117 8.5 5.7695 8.8984 11.43h0.003907c0.39062 3.6914-1.2109 7.3125-4.2109 9.5z"/>
</svg>
