<?xml version="1.0" encoding="UTF-8"?>
<svg fill="#FFFFFF" width="100pt" height="100pt" version="1.1" viewBox="0 0 100 100" xmlns="http://www.w3.org/2000/svg">
 <path d="m38.488 67.305c-1.0352 0.99219-2.6914 0.97656-3.6953-0.027344l-2.0703-2.0703c-1.0039-1.0078-1.0234-2.6562-0.027344-3.6953l0.085938-0.089844c0.99609-1.0352 1.3555-2.9375 0.80469-4.2734l-0.25-0.59766c-0.54688-1.3242-2.1445-2.4219-3.5859-2.4531h-0.125c-1.4336-0.03125-2.5938-1.2109-2.5938-2.6367v-2.9219c0-1.4258 1.1523-2.6055 2.5938-2.6367h0.125c1.4297-0.03125 3.0352-1.1211 3.5781-2.4375l0.26172-0.63281c0.54688-1.3164 0.19141-3.2148-0.80859-4.2539l-0.085938-0.089844c-0.99219-1.0352-0.97656-2.6914 0.027344-3.6953l2.0703-2.0703c1.0078-1.0039 2.6562-1.0234 3.6953-0.027344l0.089844 0.085938c1.0352 0.99609 2.9375 1.3555 4.2734 0.80469l0.59766-0.25c1.3242-0.54688 2.4219-2.1445 2.4531-3.5859v-0.125c0.03125-1.4336 1.2109-2.5938 2.6367-2.5938h2.9219c1.4258 0 2.6055 1.1523 2.6367 2.5938v0.125c0.03125 1.4297 1.1211 3.0352 2.4375 3.5781l0.63281 0.26172c1.3164 0.54688 3.2148 0.19141 4.2539-0.80859l0.089844-0.085938c1.0352-0.99219 2.6914-0.97656 3.6953 0.027344l2.0703 2.0703c1.0039 1.0078 1.0234 2.6562 0.027344 3.6953l-0.085938 0.089844c-0.99609 1.0352-1.3555 2.9375-0.80469 4.2734l0.25 0.59766c0.54688 1.3242 2.1445 2.4219 3.5859 2.4531h0.125c1.4336 0.03125 2.5938 1.2109 2.5938 2.6367v2.9219c0 1.4258-1.1523 2.6055-2.5938 2.6367h-0.125c-1.4297 0.03125-3.0352 1.1211-3.5781 2.4375l-0.26172 0.63281c-0.54688 1.3164-0.19141 3.2148 0.80859 4.2539l0.085938 0.089844c0.99219 1.0352 0.97656 2.6914-0.027344 3.6953l-2.0703 2.0703c-1.0078 1.0039-2.6562 1.0234-3.6953 0.027344l-0.089844-0.085938c-1.0352-0.99609-2.9375-1.3555-4.2734-0.80469l-0.59766 0.25c-1.3242 0.54688-2.4219 2.1445-2.4531 3.5859v0.125c-0.03125 1.4336-1.2109 2.5938-2.6367 2.5938h-2.9219c-1.4258 0-2.6055-1.1523-2.6367-2.5938v-0.125c-0.03125-1.4297-1.1211-3.0352-2.4375-3.5781l-0.63281-0.26172c-1.3164-0.54688-3.2148-0.19141-4.2539 0.80859zm11.512 20.695c-20.988 0-38-17.012-38-38s17.012-38 38-38 38 17.012 38 38-17.012 38-38 38zm-4.2969-27.629c5.7305 2.375 12.297-0.34766 14.668-6.0742 2.375-5.7305-0.34766-12.297-6.0742-14.668-5.7305-2.375-12.297 0.34766-14.668 6.0742-2.375 5.7305 0.34766 12.297 6.0742 14.668z" fill-rule="evenodd"/>
</svg>
